# xmcd
#
# Track frame offsets:
#	150
#	4103
#	58673
#	105889
#	127169
#	170609
#	195479
#
# Disc length: 3215 seconds
#
# Revision: 1
# Processed by: cddbd v1.5.2PL0 Copyright (c) Steve Scherf et al.
# Submitted via: audiograbber 1.83.01
#
DISCID=550c8d07
DTITLE=Dub Ainu Band - Live in Japan
DYEAR=2007
DGENRE=
TTITLE0=Intro
TTITLE1=Topattumi
TTITLE2=East of Kunashiri
TTITLE3=Sannupista Hechiri
TTITLE4=Iyomante Upopo
TTITLE5=Kai Kai Ashi To
TTITLE6=Utuwaskarap
EXTD=
EXTT0=
EXTT1=
EXTT2=
EXTT3=
EXTT4=
EXTT5=
EXTT6=
PLAYORDER=
